<?xml version="1.0" encoding="UTF-8"?>
<svg width="320px" height="634px" viewBox="0 0 320 634" version="1.1" xmlns="http://www.w3.org/2000/svg" xmlns:xlink="http://www.w3.org/1999/xlink">
    <title>Fill 80</title>
    <defs>
        <path d="M316.688289,170.271287 C409.838394,170.271287 485.354791,94.2143659 485.354791,0.4 L633.2,0.4 C633.2,176.683739 491.539458,319.6 316.8,319.6 C142.060542,319.6 0.4,176.683739 0.4,0.4 L0.4,0.4 L148.021787,0.4 C148.021787,94.2143659 223.538184,170.271287 316.688289,170.271287 Z" id="path-1"></path>
    </defs>
    <g id="Page-1" stroke="none" stroke-width="1" fill="none" fill-rule="evenodd">
        <g id="08-get-involved" transform="translate(-1121.000000, -5621.000000)">
            <g id="Fill-80" transform="translate(1281.000000, 5938.000000) rotate(-270.000000) translate(-1281.000000, -5938.000000) translate(964.000000, 5778.000000)">
                <mask id="mask-2" fill="white">
                    <use xlink:href="#path-1"></use>
                </mask>
                <g id="Fill-84"></g>
                <path d="M-684.304101,547.503976 L21.855856,-158.833946 M-684.304101,522.213966 L21.855856,-184.123956 M-684.304101,496.923956 L21.855856,-209.413966 M-684.304101,471.633946 L21.855856,-234.703976 M-634.526939,547.503976 L71.6330186,-158.833946 M-585.53989,547.503976 L120.620068,-158.833946 M-535.762727,547.503976 L170.39723,-158.833946 M-485.985564,547.503976 L220.174393,-158.833946 M-436.208402,547.503976 L269.951555,-158.833946 M-387.221353,547.503976 L318.938604,-158.833946 M-337.44419,547.503976 L368.715767,-158.833946 M-288.457141,547.503976 L417.702816,-158.833946 M-237.889865,547.503976 L468.270092,-158.833946 M-188.112702,547.503976 L518.047255,-158.833946 M-139.125653,547.503976 L567.034304,-158.833946 M-89.3484907,547.503976 L616.811466,-158.833946 M-40.3614417,547.503976 L665.798515,-158.833946 M10.2058346,547.503976 L716.365792,-158.833946 M59.9829972,547.503976 L766.142954,-158.833946 M108.970046,547.503976 L815.130003,-158.833946 M158.747209,547.503976 L864.907166,-158.833946 M206.944144,547.503976 L913.104101,-158.833946" id="Line-5" stroke="#000000" stroke-width="8" stroke-linecap="square" mask="url(#mask-2)"></path>
                <path d="M-659.104101,547.104067 L47.055856,-159.104067 M-609.326939,547.104067 L96.8330186,-159.104067 M-560.33989,547.104067 L145.820068,-159.104067 M-510.562727,547.104067 L195.59723,-159.104067 M-460.785564,547.104067 L245.374393,-159.104067 M-411.008402,547.104067 L295.151555,-159.104067 M-362.021353,547.104067 L344.138604,-159.104067 M-312.24419,547.104067 L393.915767,-159.104067 M-263.257141,547.104067 L442.902816,-159.104067 M-212.689865,547.104067 L493.470092,-159.104067 M-162.912702,547.104067 L543.247255,-159.104067 M-113.925653,547.104067 L592.234304,-159.104067 M-64.1484907,547.104067 L642.011466,-159.104067 M-15.1614417,547.104067 L690.998515,-159.104067 M35.4058346,547.104067 L741.565792,-159.104067 M85.1829972,547.104067 L791.342954,-159.104067 M134.170046,547.104067 L840.330003,-159.104067 M183.947209,547.104067 L890.107166,-159.104067 M232.144144,547.104067 L938.304101,-159.104067" id="Line-5-Copy" stroke="#000000" stroke-width="8" stroke-linecap="square" mask="url(#mask-2)"></path>
            </g>
        </g>
    </g>
</svg>