<svg xmlns="http://www.w3.org/2000/svg" width="959.499" height="946" viewBox="0 0 959.499 946">
  <path d="M834,51.5a45.644,45.644,0,0,1,41-41V23.392A32.824,32.824,0,0,0,846.89,51.5Zm78.108,0A32.82,32.82,0,0,0,884,23.392V10.5a45.653,45.653,0,0,1,41,41ZM672,51.5a45.644,45.644,0,0,1,41-41V23.392A32.825,32.825,0,0,0,684.89,51.5Zm79.108,0A32.82,32.82,0,0,0,723,23.392V10.5a45.653,45.653,0,0,1,41,41ZM514,51.5a45.645,45.645,0,0,1,41-41V23.392A32.824,32.824,0,0,0,526.891,51.5Zm78.108,0A32.82,32.82,0,0,0,564,23.392V10.5a45.653,45.653,0,0,1,41,41ZM355,51.5a45.644,45.644,0,0,1,41-41V23.392A32.823,32.823,0,0,0,367.891,51.5Zm80.108,0A32.824,32.824,0,0,0,407,23.387V10.5a45.644,45.644,0,0,1,41,41ZM194,51.5a45.653,45.653,0,0,1,41-41V23.392A32.821,32.821,0,0,0,206.9,51.5Zm79.109,0A32.827,32.827,0,0,0,245,23.387V10.5a45.644,45.644,0,0,1,41,41ZM33,51.5a45.644,45.644,0,0,1,41-41V23.392A32.825,32.825,0,0,0,45.89,51.5Zm79.108,0A32.823,32.823,0,0,0,84,23.387V10.5a45.643,45.643,0,0,1,41,41ZM804,102.5V89.608A32.823,32.823,0,0,0,832.116,61.5H845A45.644,45.644,0,0,1,804,102.5Zm-10,0a45.644,45.644,0,0,1-41-41H765.89A32.824,32.824,0,0,0,794,89.608Zm-468,0V89.608A32.826,32.826,0,0,0,354.116,61.5H367A45.644,45.644,0,0,1,326,102.5Zm-10,0a45.651,45.651,0,0,1-41-41h12.888A32.825,32.825,0,0,0,316,89.608Zm639,0a45.644,45.644,0,0,1-41-41H926.89A32.825,32.825,0,0,0,955,89.608Zm-791,0V89.608A32.825,32.825,0,0,0,192.116,61.5H205A45.644,45.644,0,0,1,164,102.5Zm-9,0a45.65,45.65,0,0,1-41-41H126.89A32.825,32.825,0,0,0,155,89.608Zm487,0V89.608A32.823,32.823,0,0,0,670.116,61.5H683A45.644,45.644,0,0,1,642,102.5Zm-9,0a45.644,45.644,0,0,1-41-41H604.89A32.824,32.824,0,0,0,633,89.608Zm-147,0V89.608A32.825,32.825,0,0,0,514.116,61.5H527A45.644,45.644,0,0,1,486,102.5Zm-9,0a45.65,45.65,0,0,1-41-41H448.89A32.825,32.825,0,0,0,477,89.608Zm355.113,68A32.822,32.822,0,0,0,804,142.392h0V129.5a45.643,45.643,0,0,1,41,41H832.116ZM753,170.5a45.65,45.65,0,0,1,41-41h0v12.892A32.823,32.823,0,0,0,765.89,170.5H753Zm-82.887,0A32.822,32.822,0,0,0,642,142.392h0V129.5a45.643,45.643,0,0,1,41,41H670.116ZM275,170.5a45.651,45.651,0,0,1,41-41h0v12.892A32.824,32.824,0,0,0,287.891,170.5H275Zm-82.887,0A32.824,32.824,0,0,0,164,142.392h0V129.5a45.643,45.643,0,0,1,41,41H192.116ZM114,170.5a45.65,45.65,0,0,1,41-41h0v12.892A32.824,32.824,0,0,0,126.89,170.5H114Zm478,0a45.65,45.65,0,0,1,41-41h0v12.892A32.823,32.823,0,0,0,604.89,170.5H592Zm322,0a45.65,45.65,0,0,1,41-41h0v12.892A32.824,32.824,0,0,0,926.89,170.5H914Zm-478,0a45.65,45.65,0,0,1,41-41h0v12.892A32.824,32.824,0,0,0,448.89,170.5H436Zm-81.887,0A32.825,32.825,0,0,0,326,142.392h0V129.5a45.643,45.643,0,0,1,41,41H354.116Zm160,0A32.824,32.824,0,0,0,486,142.392h0V129.5a45.643,45.643,0,0,1,41,41H514.116ZM875,221.5a45.644,45.644,0,0,1-41-41H846.89A32.827,32.827,0,0,0,875,208.609h0Zm9,0V208.612A32.822,32.822,0,0,0,912.111,180.5H925a45.644,45.644,0,0,1-41,41Zm-171,0a45.644,45.644,0,0,1-41-41H684.89A32.828,32.828,0,0,0,713,208.609h0Zm10,0V208.612A32.822,32.822,0,0,0,751.111,180.5H764a45.644,45.644,0,0,1-41,41Zm-168,0a45.644,45.644,0,0,1-41-41h12.888A32.827,32.827,0,0,0,555,208.609h0Zm9,0V208.612A32.822,32.822,0,0,0,592.111,180.5H605a45.644,45.644,0,0,1-41,41Zm-168,0a45.644,45.644,0,0,1-41-41h12.888A32.826,32.826,0,0,0,396,208.609h0Zm11,0V208.612A32.823,32.823,0,0,0,435.111,180.5H448a45.644,45.644,0,0,1-41,41Zm-172,0a45.652,45.652,0,0,1-41-41H206.9A32.824,32.824,0,0,0,235,208.609h0Zm10,0V208.612A32.826,32.826,0,0,0,273.112,180.5H286a45.644,45.644,0,0,1-41,41Zm-171,0a45.644,45.644,0,0,1-41-41H45.89A32.828,32.828,0,0,0,74,208.609h0Zm10,0V208.612A32.822,32.822,0,0,0,112.111,180.5H125a45.643,45.643,0,0,1-41,41Zm750,69a45.642,45.642,0,0,1,41-41v12.891A32.825,32.825,0,0,0,846.89,290.5Zm-721.892,0A32.823,32.823,0,0,0,84,262.388V249.5a45.644,45.644,0,0,1,41,41Zm639,0A32.822,32.822,0,0,0,723,262.388V249.5a45.644,45.644,0,0,1,41,41Zm-159,0A32.822,32.822,0,0,0,564,262.388V249.5a45.644,45.644,0,0,1,41,41ZM355,290.5a45.642,45.642,0,0,1,41-41v12.891A32.824,32.824,0,0,0,367.891,290.5Zm80.108,0A32.824,32.824,0,0,0,407,262.388V249.5a45.645,45.645,0,0,1,41,41ZM672,290.5a45.642,45.642,0,0,1,41-41v12.891A32.826,32.826,0,0,0,684.89,290.5Zm-478,0a45.65,45.65,0,0,1,41-41v12.891A32.822,32.822,0,0,0,206.9,290.5Zm718.108,0A32.822,32.822,0,0,0,884,262.388V249.5a45.644,45.644,0,0,1,41,41Zm-639,0A32.827,32.827,0,0,0,245,262.388V249.5a45.644,45.644,0,0,1,41,41ZM514,290.5a45.643,45.643,0,0,1,41-41v12.891A32.825,32.825,0,0,0,526.891,290.5Zm-481,0a45.642,45.642,0,0,1,41-41v12.891A32.826,32.826,0,0,0,45.89,290.5Zm922,50a45.65,45.65,0,0,1-41-41H926.89A32.824,32.824,0,0,0,955,327.608Zm-313,0V327.608A32.822,32.822,0,0,0,670.116,299.5H683A45.643,45.643,0,0,1,642,340.5Zm-9,0a45.65,45.65,0,0,1-41-41H604.89A32.823,32.823,0,0,0,633,327.608Zm171,0V327.608A32.822,32.822,0,0,0,832.116,299.5H845A45.643,45.643,0,0,1,804,340.5Zm-10,0a45.65,45.65,0,0,1-41-41H765.89A32.823,32.823,0,0,0,794,327.608Zm-468,0V327.608A32.825,32.825,0,0,0,354.116,299.5H367A45.643,45.643,0,0,1,326,340.5Zm-10,0a45.651,45.651,0,0,1-41-41h12.888A32.824,32.824,0,0,0,316,327.608Zm-152,0V327.608A32.824,32.824,0,0,0,192.116,299.5H205A45.643,45.643,0,0,1,164,340.5Zm-9,0a45.65,45.65,0,0,1-41-41H126.89A32.824,32.824,0,0,0,155,327.608Zm331,0V327.608A32.824,32.824,0,0,0,514.116,299.5H527A45.643,45.643,0,0,1,486,340.5Zm-9,0a45.65,45.65,0,0,1-41-41H448.89A32.824,32.824,0,0,0,477,327.608Zm115,69a45.65,45.65,0,0,1,41-41h0v12.892A32.824,32.824,0,0,0,604.89,409.5H592Zm-317,0a45.651,45.651,0,0,1,41-41h0v12.892A32.825,32.825,0,0,0,287.891,409.5H275Zm239.113,0A32.827,32.827,0,0,0,486,381.391h0V368.5a45.644,45.644,0,0,1,41,41H514.116Zm-160,0A32.828,32.828,0,0,0,326,381.391h0V368.5a45.644,45.644,0,0,1,41,41H354.116ZM753,409.5a45.65,45.65,0,0,1,41-41h0v12.892A32.824,32.824,0,0,0,765.89,409.5H753Zm-317,0a45.65,45.65,0,0,1,41-41h0v12.892A32.825,32.825,0,0,0,448.89,409.5H436Zm-322,0a45.65,45.65,0,0,1,41-41h0v12.892A32.825,32.825,0,0,0,126.89,409.5H114Zm556.113,0A32.825,32.825,0,0,0,642,381.391h0V368.5a45.644,45.644,0,0,1,41,41H670.116Zm-478,0A32.827,32.827,0,0,0,164,381.391h0V368.5a45.644,45.644,0,0,1,41,41H192.116Zm640,0A32.825,32.825,0,0,0,804,381.391h0V368.5a45.644,45.644,0,0,1,41,41H832.116Zm81.887,0a45.65,45.65,0,0,1,41-41h0v12.892A32.825,32.825,0,0,0,926.89,409.5H914Zm-39,50a45.644,45.644,0,0,1-41-41H846.89A32.824,32.824,0,0,0,875,446.608h0Zm9,0V446.612A32.823,32.823,0,0,0,912.111,418.5H925a45.645,45.645,0,0,1-41,41Zm-171,0a45.644,45.644,0,0,1-41-41H684.89A32.825,32.825,0,0,0,713,446.608h0Zm10,0V446.612A32.823,32.823,0,0,0,751.111,418.5H764a45.645,45.645,0,0,1-41,41Zm-168,0a45.645,45.645,0,0,1-41-41h12.888A32.824,32.824,0,0,0,555,446.608h0Zm9,0V446.612A32.823,32.823,0,0,0,592.111,418.5H605a45.645,45.645,0,0,1-41,41Zm-168,0a45.644,45.644,0,0,1-41-41h12.888A32.823,32.823,0,0,0,396,446.608h0Zm11,0V446.612A32.824,32.824,0,0,0,435.111,418.5H448a45.645,45.645,0,0,1-41,41Zm-172,0a45.653,45.653,0,0,1-41-41H206.9A32.821,32.821,0,0,0,235,446.608h0Zm10,0V446.612A32.827,32.827,0,0,0,273.112,418.5H286a45.644,45.644,0,0,1-41,41Zm-171,0a45.644,45.644,0,0,1-41-41H45.89A32.825,32.825,0,0,0,74,446.608h0Zm10,0V446.612A32.823,32.823,0,0,0,112.111,418.5H125a45.644,45.644,0,0,1-41,41Zm750,68a45.644,45.644,0,0,1,41-41v12.892A32.825,32.825,0,0,0,846.89,527.5Zm78.108,0A32.821,32.821,0,0,0,884,499.392V486.5a45.653,45.653,0,0,1,41,41ZM672,527.5a45.644,45.644,0,0,1,41-41v12.892A32.826,32.826,0,0,0,684.89,527.5Zm79.108,0A32.821,32.821,0,0,0,723,499.392V486.5a45.653,45.653,0,0,1,41,41ZM514,527.5a45.645,45.645,0,0,1,41-41v12.892A32.825,32.825,0,0,0,526.891,527.5Zm78.108,0A32.821,32.821,0,0,0,564,499.392V486.5a45.653,45.653,0,0,1,41,41ZM355,527.5a45.644,45.644,0,0,1,41-41v12.892A32.824,32.824,0,0,0,367.891,527.5Zm80.108,0A32.825,32.825,0,0,0,407,499.387V486.5a45.644,45.644,0,0,1,41,41ZM194,527.5a45.653,45.653,0,0,1,41-41v12.892A32.822,32.822,0,0,0,206.9,527.5Zm79.109,0A32.828,32.828,0,0,0,245,499.387V486.5a45.644,45.644,0,0,1,41,41ZM33,527.5a45.644,45.644,0,0,1,41-41v12.892A32.826,32.826,0,0,0,45.89,527.5Zm79.108,0A32.824,32.824,0,0,0,84,499.387V486.5a45.643,45.643,0,0,1,41,41ZM804,577.5V564.608A32.823,32.823,0,0,0,832.116,536.5H845A45.644,45.644,0,0,1,804,577.5Zm-10,0a45.644,45.644,0,0,1-41-41H765.89A32.824,32.824,0,0,0,794,564.608Zm-152,0V564.608A32.823,32.823,0,0,0,670.116,536.5H683A45.644,45.644,0,0,1,642,577.5Zm-9,0a45.644,45.644,0,0,1-41-41H604.89A32.824,32.824,0,0,0,633,564.608Zm322,0a45.644,45.644,0,0,1-41-41H926.89A32.825,32.825,0,0,0,955,564.608Zm-629,0V564.608A32.826,32.826,0,0,0,354.116,536.5H367A45.644,45.644,0,0,1,326,577.5Zm-10,0a45.651,45.651,0,0,1-41-41h12.888A32.825,32.825,0,0,0,316,564.608Zm-152,0V564.608A32.825,32.825,0,0,0,192.116,536.5H205A45.644,45.644,0,0,1,164,577.5Zm-9,0a45.65,45.65,0,0,1-41-41H126.89A32.825,32.825,0,0,0,155,564.608Zm331,0V564.608A32.825,32.825,0,0,0,514.116,536.5H527A45.644,45.644,0,0,1,486,577.5Zm-9,0a45.65,45.65,0,0,1-41-41H448.89A32.825,32.825,0,0,0,477,564.608Zm355.113,69A32.823,32.823,0,0,0,804,618.392h0V605.5a45.644,45.644,0,0,1,41,41H832.116ZM753,646.5a45.65,45.65,0,0,1,41-41h0v12.892A32.823,32.823,0,0,0,765.89,646.5H753Zm-82.887,0A32.823,32.823,0,0,0,642,618.392h0V605.5a45.644,45.644,0,0,1,41,41H670.116ZM592,646.5a45.65,45.65,0,0,1,41-41h0v12.892A32.823,32.823,0,0,0,604.89,646.5H592Zm322,0a45.65,45.65,0,0,1,41-41h0v12.892A32.824,32.824,0,0,0,926.89,646.5H914Zm-559.887,0A32.826,32.826,0,0,0,326,618.392h0V605.5a45.644,45.644,0,0,1,41,41H354.116ZM275,646.5a45.651,45.651,0,0,1,41-41h0v12.892A32.824,32.824,0,0,0,287.891,646.5H275Zm-82.887,0A32.825,32.825,0,0,0,164,618.392h0V605.5a45.644,45.644,0,0,1,41,41H192.116ZM114,646.5a45.65,45.65,0,0,1,41-41h0v12.892A32.824,32.824,0,0,0,126.89,646.5H114Zm400.113,0A32.825,32.825,0,0,0,486,618.392h0V605.5a45.644,45.644,0,0,1,41,41H514.116ZM436,646.5a45.65,45.65,0,0,1,41-41h0v12.892A32.824,32.824,0,0,0,448.89,646.5H436Zm439,50a45.644,45.644,0,0,1-41-41H846.89A32.825,32.825,0,0,0,875,683.608h0Zm9,0V683.613A32.822,32.822,0,0,0,912.111,655.5H925a45.644,45.644,0,0,1-41,41Zm-171,0a45.644,45.644,0,0,1-41-41H684.89A32.826,32.826,0,0,0,713,683.608h0Zm10,0V683.613A32.822,32.822,0,0,0,751.111,655.5H764a45.644,45.644,0,0,1-41,41Zm-168,0a45.645,45.645,0,0,1-41-41h12.888A32.825,32.825,0,0,0,555,683.608h0Zm9,0V683.613A32.822,32.822,0,0,0,592.111,655.5H605a45.644,45.644,0,0,1-41,41Zm-168,0a45.644,45.644,0,0,1-41-41h12.888A32.824,32.824,0,0,0,396,683.608h0Zm11,0V683.613A32.823,32.823,0,0,0,435.111,655.5H448a45.644,45.644,0,0,1-41,41Zm-172,0a45.653,45.653,0,0,1-41-41H206.9A32.822,32.822,0,0,0,235,683.608h0Zm10,0V683.613A32.826,32.826,0,0,0,273.112,655.5H286a45.644,45.644,0,0,1-41,41Zm-171,0a45.644,45.644,0,0,1-41-41H45.89A32.826,32.826,0,0,0,74,683.608h0Zm10,0V683.613A32.822,32.822,0,0,0,112.111,655.5H125a45.643,45.643,0,0,1-41,41Zm750,69a45.644,45.644,0,0,1,41-41v12.892A32.823,32.823,0,0,0,846.89,765.5Zm78.108,0A32.822,32.822,0,0,0,884,737.387V724.5a45.644,45.644,0,0,1,41,41ZM672,765.5a45.644,45.644,0,0,1,41-41v12.892A32.824,32.824,0,0,0,684.89,765.5Zm79.108,0A32.822,32.822,0,0,0,723,737.387V724.5a45.644,45.644,0,0,1,41,41ZM514,765.5a45.645,45.645,0,0,1,41-41v12.892A32.823,32.823,0,0,0,526.891,765.5Zm78.108,0A32.822,32.822,0,0,0,564,737.387V724.5a45.644,45.644,0,0,1,41,41ZM355,765.5a45.644,45.644,0,0,1,41-41v12.892A32.822,32.822,0,0,0,367.891,765.5Zm80.108,0A32.825,32.825,0,0,0,407,737.387V724.5a45.644,45.644,0,0,1,41,41ZM194,765.5a45.653,45.653,0,0,1,41-41v12.892A32.82,32.82,0,0,0,206.9,765.5Zm79.109,0A32.828,32.828,0,0,0,245,737.387V724.5a45.644,45.644,0,0,1,41,41ZM33,765.5a45.644,45.644,0,0,1,41-41v12.892A32.824,32.824,0,0,0,45.89,765.5Zm79.108,0A32.824,32.824,0,0,0,84,737.387V724.5a45.643,45.643,0,0,1,41,41ZM804,817.5V804.608A32.822,32.822,0,0,0,832.116,776.5H845A45.644,45.644,0,0,1,804,817.5Zm-10,0a45.65,45.65,0,0,1-41-41H765.89A32.823,32.823,0,0,0,794,804.608Zm-152,0V804.608A32.822,32.822,0,0,0,670.116,776.5H683A45.644,45.644,0,0,1,642,817.5Zm-9,0a45.65,45.65,0,0,1-41-41H604.89A32.823,32.823,0,0,0,633,804.608Zm322,0a45.65,45.65,0,0,1-41-41H926.89A32.824,32.824,0,0,0,955,804.608Zm-629,0V804.608A32.825,32.825,0,0,0,354.116,776.5H367A45.644,45.644,0,0,1,326,817.5Zm-10,0a45.651,45.651,0,0,1-41-41h12.888A32.824,32.824,0,0,0,316,804.608Zm-152,0V804.608A32.824,32.824,0,0,0,192.116,776.5H205A45.644,45.644,0,0,1,164,817.5Zm-9,0a45.65,45.65,0,0,1-41-41H126.89A32.824,32.824,0,0,0,155,804.608Zm331,0V804.608A32.824,32.824,0,0,0,514.116,776.5H527A45.644,45.644,0,0,1,486,817.5Zm-9,0a45.65,45.65,0,0,1-41-41H448.89A32.824,32.824,0,0,0,477,804.608Zm355.113,67A32.823,32.823,0,0,0,804,856.392h0V843.5a45.644,45.644,0,0,1,41,41H832.116ZM753,884.5a45.65,45.65,0,0,1,41-41h0v12.892A32.824,32.824,0,0,0,765.89,884.5H753Zm-82.887,0A32.823,32.823,0,0,0,642,856.392h0V843.5a45.644,45.644,0,0,1,41,41H670.116ZM592,884.5a45.65,45.65,0,0,1,41-41h0v12.892A32.824,32.824,0,0,0,604.89,884.5H592Zm322,0a45.65,45.65,0,0,1,41-41h0v12.892A32.825,32.825,0,0,0,926.89,884.5H914Zm-559.887,0A32.826,32.826,0,0,0,326,856.392h0V843.5a45.644,45.644,0,0,1,41,41H354.116ZM275,884.5a45.651,45.651,0,0,1,41-41h0v12.892A32.825,32.825,0,0,0,287.891,884.5H275Zm-82.887,0A32.825,32.825,0,0,0,164,856.392h0V843.5a45.644,45.644,0,0,1,41,41H192.116ZM4,102.5V89.608A32.825,32.825,0,0,0,32.116,61.5H45A45.644,45.644,0,0,1,4,102.5Zm28.113,68A32.824,32.824,0,0,0,4,142.392H4V129.5a45.643,45.643,0,0,1,41,41H32.116ZM4,340.5V327.608A32.824,32.824,0,0,0,32.116,299.5H45A45.643,45.643,0,0,1,4,340.5Zm28.113,69A32.827,32.827,0,0,0,4,381.391H4V368.5a45.644,45.644,0,0,1,41,41H32.116ZM4,577.5V564.608A32.825,32.825,0,0,0,32.116,536.5H45A45.644,45.644,0,0,1,4,577.5Zm28.113,69A32.825,32.825,0,0,0,4,618.392H4V605.5a45.644,45.644,0,0,1,41,41H32.116ZM4,817.5V804.608A32.824,32.824,0,0,0,32.116,776.5H45A45.644,45.644,0,0,1,4,817.5Zm28.113,67A32.825,32.825,0,0,0,4,856.392H4V843.5a45.644,45.644,0,0,1,41,41H32.116Zm81.887,0a45.65,45.65,0,0,1,41-41h0v12.892A32.825,32.825,0,0,0,126.89,884.5H114Zm400.113,0A32.825,32.825,0,0,0,486,856.392h0V843.5a45.644,45.644,0,0,1,41,41H514.116ZM436,884.5a45.65,45.65,0,0,1,41-41h0v12.892A32.825,32.825,0,0,0,448.89,884.5H436Zm439,51a45.644,45.644,0,0,1-41-41H846.89A32.824,32.824,0,0,0,875,922.608h0Zm9,0V922.613A32.824,32.824,0,0,0,912.111,894.5H925a45.644,45.644,0,0,1-41,41Zm-171,0a45.644,45.644,0,0,1-41-41H684.89A32.825,32.825,0,0,0,713,922.608h0Zm10,0V922.613A32.824,32.824,0,0,0,751.111,894.5H764a45.644,45.644,0,0,1-41,41Zm-168,0a45.645,45.645,0,0,1-41-41h12.888A32.824,32.824,0,0,0,555,922.608h0Zm9,0V922.613A32.824,32.824,0,0,0,592.111,894.5H605a45.644,45.644,0,0,1-41,41Zm-168,0a45.644,45.644,0,0,1-41-41h12.888A32.823,32.823,0,0,0,396,922.608h0Zm11,0V922.613A32.825,32.825,0,0,0,435.111,894.5H448a45.644,45.644,0,0,1-41,41Zm-172,0a45.653,45.653,0,0,1-41-41H206.9A32.821,32.821,0,0,0,235,922.608h0Zm10,0V922.613A32.828,32.828,0,0,0,273.112,894.5H286a45.644,45.644,0,0,1-41,41Zm-171,0a45.644,45.644,0,0,1-41-41H45.89A32.825,32.825,0,0,0,74,922.608h0Zm10,0V922.613A32.824,32.824,0,0,0,112.111,894.5H125a45.643,45.643,0,0,1-41,41Z" fill="#fff" fill-rule="evenodd"/>
</svg>
